<svg width="24" height="22" viewBox="0 0 24 22" fill="none" xmlns="http://www.w3.org/2000/svg">
<path d="M22.2489 2.08184C21.0652 0.738621 19.423 -0.00109863 17.625 -0.00109863C15.0962 -0.00109863 13.4952 1.50928 12.5974 2.77637C12.3645 3.10516 12.1664 3.43485 12 3.74508C11.8336 3.43485 11.6355 3.10516 11.4026 2.77637C10.5048 1.50928 8.90381 -0.00109863 6.375 -0.00109863C4.57697 -0.00109863 2.9348 0.738668 1.75102 2.08188C0.621891 3.36322 0 5.07929 0 6.91397C0 8.91107 0.779672 10.7686 2.45367 12.7595C3.94978 14.539 6.10214 16.3732 8.59453 18.4971C9.52327 19.2886 10.4837 20.1071 11.5062 21.0017L11.5369 21.0286C11.6694 21.1447 11.8347 21.2027 12 21.2027C12.1653 21.2027 12.3306 21.1447 12.4631 21.0286L12.4938 21.0017C13.5163 20.1071 14.4767 19.2887 15.4056 18.497C17.8979 16.3732 20.0502 14.539 21.5463 12.7595C23.2203 10.7685 24 8.91107 24 6.91397C24 5.07929 23.3781 3.36322 22.2489 2.08184ZM14.4934 17.4268C13.6928 18.109 12.8688 18.8112 12 19.5665C11.1312 18.8113 10.3072 18.109 9.50644 17.4267C4.62867 13.2699 1.40625 10.5238 1.40625 6.91397C1.40625 5.42187 1.90336 4.036 2.80603 3.01169C3.71906 1.97575 4.98652 1.40521 6.375 1.40521C8.30292 1.40521 9.54919 2.59298 10.2551 3.5894C10.8884 4.48307 11.2188 5.38395 11.3315 5.72976C11.4257 6.01923 11.6956 6.21512 12 6.21512C12.3044 6.21512 12.5743 6.01923 12.6685 5.72976C12.7812 5.38395 13.1116 4.48307 13.7449 3.58935C14.4508 2.59298 15.6971 1.40521 17.625 1.40521C19.0135 1.40521 20.2809 1.97575 21.1939 3.01169C22.0966 4.036 22.5938 5.42187 22.5938 6.91397C22.5938 10.5238 19.3713 13.2699 14.4934 17.4268Z" fill="#C1C1C1"/>
</svg>
