<svg width="24" height="24" viewBox="0 0 24 24" fill="none" xmlns="http://www.w3.org/2000/svg">
<path d="M9.89063 19.7659C4.43691 19.7659 0 15.3323 0 9.88277C0 4.43322 4.43691 -0.000305176 9.89063 -0.000305176C15.3443 -0.000305176 19.7813 4.43322 19.7813 9.88277C19.7813 15.3323 15.3443 19.7659 9.89063 19.7659ZM9.89063 1.87326C5.47078 1.87326 1.875 5.4663 1.875 9.88277C1.875 14.2992 5.47078 17.8923 9.89063 17.8923C14.3105 17.8923 17.9063 14.2992 17.9063 9.88277C17.9063 5.4663 14.3105 1.87326 9.89063 1.87326ZM23.7255 23.7254C24.0916 23.3595 24.0916 22.7663 23.7255 22.4005L19.5301 18.2084C19.164 17.8425 18.5704 17.8425 18.2043 18.2084C17.8382 18.5743 17.8382 19.1674 18.2043 19.5332L22.3996 23.7254C22.5826 23.9083 22.8226 23.9997 23.0626 23.9997C23.3025 23.9997 23.5424 23.9083 23.7255 23.7254Z" fill="white"/>
</svg>
